Coordinates
version=1
nRows=16
nColumns=63
inDegrees=yes

Units are S.I. units (second, meters, Newtons, ...)
If the header above contains a line with 'inDegrees', this indicates whether rotational values are in degrees (yes) or radians (no).

endheader
time	pelvis_tilt	pelvis_list	pelvis_rotation	pelvis_tx	pelvis_ty	pelvis_tz	hip_flexion_r	hip_adduction_r	hip_rotation_r	knee_angle_r	knee_angle_r_beta	ankle_angle_r	subtalar_angle_r	mtp_angle_r	hip_flexion_l	hip_adduction_l	hip_rotation_l	knee_angle_l	knee_angle_l_beta	ankle_angle_l	subtalar_angle_l	mtp_angle_l	L5_S1_Flex_Ext	L5_S1_Lat_Bending	L5_S1_axial_rotation	L4_L5_Flex_Ext	L4_L5_Lat_Bending	L4_L5_axial_rotation	L3_L4_Flex_Ext	L3_L4_Lat_Bending	L3_L4_axial_rotation	L2_L3_Flex_Ext	L2_L3_Lat_Bending	L2_L3_axial_rotation	L1_L2_Flex_Ext	L1_L2_Lat_Bending	L1_L2_axial_rotation	L1_T12_Flex_Ext	L1_T12_Lat_Bending	L1_T12_axial_rotation	Abs_r3	Abs_r2	Abs_r1	Abs_t1	Abs_t2	neck_flexion	neck_bending	neck_rotation	arm_flex_r	arm_add_r	arm_rot_r	elbow_flex_r	pro_sup_r	wrist_flex_r	wrist_dev_r	arm_flex_l	arm_add_l	arm_rot_l	elbow_flex_l	pro_sup_l	wrist_flex_l	wrist_dev_l
2.895833	-0.494043	-5.808889	85.420078	-0.105199	0.757587	0.650363	10.296077	-4.379000	-5.973930	22.685997	0.395945	31.453707	1.013710	0.000000	3.806742	1.980978	-16.183320	7.089545	0.123736	36.645021	14.301329	0.000000	-0.188515	0.085604	0.649227	-0.350091	0.113853	0.689803	-0.309711	0.208136	0.689803	-0.215454	0.208136	0.568073	-0.175055	0.174563	0.527497	-0.107717	0.132600	0.486920	-1.346544	0.968364	3.610803	0.000000	0.000000	26.041909	-4.531124	3.399336	7.683105	-18.151405	17.913519	24.746275	72.968431	-12.832323	6.940213	18.540442	-9.128688	98.646693	14.259035	46.926410	-13.281959	-9.233339
2.916667	-0.669526	-5.435746	85.880866	-0.105733	0.757920	0.649203	9.519509	-4.651356	-6.380613	22.225083	0.387901	31.699378	1.228790	0.000000	3.317279	2.251757	-15.618446	7.004293	0.122248	36.576835	14.233402	0.000000	-0.195354	0.035539	0.611926	-0.362792	0.047267	0.650171	-0.320947	0.086410	0.650171	-0.223270	0.086410	0.535435	-0.181406	0.072472	0.497190	-0.111625	0.055051	0.458944	-1.395395	0.402029	3.403348	0.000000	0.000000	25.370312	-4.088604	2.816455	7.681994	-17.886731	17.959104	24.549415	72.838100	-12.878299	6.363069	18.870489	-8.454646	109.832477	11.859501	38.135566	-12.934349	-10.822213
2.937500	-0.833706	-5.124438	86.345805	-0.106146	0.758246	0.648037	8.801053	-4.879857	-6.737260	21.726233	0.379194	31.973376	1.491796	0.000000	2.886362	2.493868	-15.053844	6.909726	0.120597	36.500730	14.148891	0.000000	-0.196604	-0.015053	0.554471	-0.365113	-0.020020	0.589125	-0.323000	-0.036599	0.589125	-0.224698	-0.036599	0.485162	-0.182566	-0.030695	0.450507	-0.112339	-0.023316	0.415853	-1.404321	-0.170278	3.083799	0.000000	0.000000	24.540966	-3.590112	2.265406	7.640092	-17.564918	17.719389	24.718856	73.132944	-12.809017	5.894640	19.061069	-7.874930	119.890843	9.770874	29.514831	-12.301225	-12.252304
2.958333	-0.978319	-4.875911	86.808176	-0.106466	0.758576	0.646977	8.159208	-5.057390	-7.028474	21.205432	0.370105	32.257236	1.784185	0.000000	2.521778	2.701709	-14.533874	6.798397	0.118654	36.421160	14.098420	0.000000	-0.193878	-0.064154	0.478765	-0.360052	-0.085325	0.508687	-0.318523	-0.155984	0.508687	-0.221584	-0.155984	0.418919	-0.180035	-0.130823	0.388996	-0.110782	-0.099375	0.359073	-1.384854	-0.725724	2.662745	0.000000	0.000000	23.568389	-3.085438	1.740921	7.563156	-17.203617	17.215113	25.254260	73.840965	-12.733383	5.499574	19.131653	-7.387615	128.484655	8.087491	21.368532	-11.478882	-13.503438
2.979167	-1.075750	-4.699055	87.295023	-0.106795	0.758907	0.646125	7.612864	-5.183126	-7.350050	20.680186	0.360937	32.552406	2.190904	0.000000	2.255283	2.851102	-14.032586	6.696941	0.116884	36.351156	14.079277	0.000000	-0.186695	-0.106340	0.378334	-0.346712	-0.141432	0.401980	-0.306721	-0.258555	0.401980	-0.213374	-0.258555	0.331042	-0.173365	-0.216848	0.307396	-0.106678	-0.164720	0.283750	-1.333545	-1.202938	2.104179	0.000000	0.000000	22.477269	-2.586617	1.330935	7.486102	-16.839807	16.537201	26.112200	74.885448	-12.719660	5.151714	19.083733	-6.970776	135.224842	6.879006	14.086014	-10.500753	-14.527751
3.000000	-1.131920	-4.587469	87.734362	-0.107073	0.759245	0.645596	7.192992	-5.246809	-7.597185	20.192443	0.352425	32.826991	2.623168	0.000000	2.080462	2.945409	-13.614853	6.596735	0.115135	36.288699	14.094055	0.000000	-0.175823	-0.141409	0.270849	-0.326521	-0.188074	0.287777	-0.288860	-0.343823	0.287777	-0.200948	-0.343823	0.236993	-0.163269	-0.288362	0.220065	-0.100465	-0.219043	0.203137	-1.255888	-1.599651	1.506382	0.000000	0.000000	21.290424	-2.110106	1.050062	7.430486	-16.467814	15.656171	27.221231	76.302300	-12.788807	4.877364	18.951705	-6.625061	139.972966	6.148308	7.955444	-9.368656	-15.266091
3.020833	-1.133169	-4.527455	88.140383	-0.107348	0.759595	0.645437	6.886523	-5.259279	-7.839911	19.753565	0.344765	33.079121	3.116294	0.000000	1.992766	2.977338	-13.260085	6.513724	0.113686	36.237423	14.136543	0.000000	-0.163114	-0.167499	0.164834	-0.302919	-0.222774	0.175136	-0.267980	-0.407258	0.175136	-0.186423	-0.407258	0.144230	-0.151468	-0.341564	0.133928	-0.093203	-0.259456	0.123626	-1.165106	-1.894785	0.916758	0.000000	0.000000	20.036370	-1.693379	0.838091	7.385471	-16.113195	14.615786	28.533608	77.858779	-12.961031	4.641644	18.820434	-6.345829	143.013280	5.759415	3.160876	-8.190430	-15.810913
3.041667	-1.093073	-4.518303	88.459078	-0.107529	0.759940	0.645692	6.712188	-5.206512	-7.933990	19.389229	0.338406	33.265547	3.483503	0.000000	1.983951	2.960753	-12.916835	6.437116	0.112349	36.162132	14.078797	0.000000	-0.149102	-0.186403	0.075560	-0.276897	-0.247915	0.080282	-0.244960	-0.453219	0.080282	-0.170409	-0.453219	0.066115	-0.138456	-0.380112	0.061392	-0.085197	-0.288738	0.056670	-1.065021	-2.108623	0.420241	0.000000	0.000000	18.743714	-1.337785	0.676034	7.365669	-15.752293	13.401379	29.975673	79.498909	-13.217972	4.494680	18.728372	-6.151920	144.267926	5.693503	-0.063900	-7.017424	-16.096957
3.062500	-1.046889	-4.553892	88.570084	-0.107434	0.760261	0.646387	6.697000	-5.108349	-7.796758	19.134923	0.333967	33.376650	3.736118	0.000000	2.040866	2.924187	-12.660477	6.363518	0.111064	36.033580	13.875120	0.000000	-0.134875	-0.203421	0.034512	-0.250476	-0.270551	0.036669	-0.221586	-0.494599	0.036669	-0.154148	-0.494599	0.030198	-0.125245	-0.414817	0.028041	-0.077067	-0.315100	0.025884	-0.963398	-2.301144	0.191945	0.000000	0.000000	17.465336	-1.031682	0.475868	7.357918	-15.379747	12.041453	31.532573	81.096226	-13.571522	4.512367	18.741858	-6.067929	143.705768	5.958755	-1.535762	-5.877617	-16.084276
3.083333	-0.936787	-4.630847	88.651483	-0.107334	0.760606	0.647419	6.764842	-4.963086	-7.723701	18.930075	0.330392	33.427043	4.008011	0.000000	2.162595	2.812817	-12.390592	6.325753	0.110405	35.877205	13.644215	0.000000	-0.120170	-0.209900	0.008811	-0.223168	-0.279167	0.009361	-0.197428	-0.510351	0.009361	-0.137343	-0.510351	0.007709	-0.111590	-0.428028	0.007159	-0.068665	-0.325135	0.006608	-0.858365	-2.374433	0.049003	0.000000	0.000000	16.163331	-0.801921	0.340077	7.385408	-15.001454	10.581628	33.137866	82.551856	-13.958368	4.822910	19.113190	-5.747315	144.733424	5.781963	-3.835380	-4.512842	-16.292041
3.104167	-0.867912	-4.730066	88.517357	-0.106809	0.760905	0.648796	6.962589	-4.806920	-7.381058	18.834757	0.328729	33.407240	4.082715	0.000000	2.314242	2.724178	-12.174256	6.276810	0.109551	35.654905	13.238670	0.000000	-0.105948	-0.222700	0.027310	-0.196756	-0.296191	0.029017	-0.174062	-0.541473	0.029017	-0.121088	-0.541473	0.023897	-0.098384	-0.454130	0.022190	-0.060539	-0.344962	0.020483	-0.756778	-2.519227	0.151892	0.000000	0.000000	14.918659	-0.534556	0.220116	7.483079	-14.570605	9.289599	34.732581	83.650796	-14.396030	5.306191	19.513504	-5.708310	142.608223	6.201074	-3.104451	-3.645905	-15.994136
3.125000	-0.875869	-4.845269	88.087823	-0.105711	0.761128	0.650506	7.307616	-4.660616	-6.721719	18.870134	0.329346	33.344245	3.999402	0.000000	2.487936	2.686196	-12.117175	6.210277	0.108390	35.375729	12.691124	0.000000	-0.091431	-0.247825	0.106126	-0.169797	-0.329607	0.112759	-0.150212	-0.602561	0.112759	-0.104497	-0.602561	0.092861	-0.084903	-0.505364	0.086228	-0.052244	-0.383880	0.079595	-0.653084	-2.803441	0.590243	0.000000	0.000000	13.770048	-0.215581	0.029936	7.651855	-14.058455	8.134332	36.247471	84.572255	-14.925103	5.767685	19.866151	-5.972318	136.843274	7.284961	1.248690	-3.200548	-15.096756
3.145833	-0.886726	-4.983176	87.488453	-0.104345	0.761310	0.652351	7.734110	-4.478878	-5.884706	18.967339	0.331043	33.214592	3.782025	0.000000	2.671799	2.641550	-12.048564	6.113391	0.106699	35.064048	11.969925	0.000000	-0.074339	-0.271859	0.220134	-0.138055	-0.361573	0.233893	-0.122131	-0.660999	0.233893	-0.084962	-0.660999	0.192617	-0.069031	-0.554375	0.178859	-0.042477	-0.421110	0.165101	-0.530995	-3.075327	1.224321	0.000000	0.000000	12.729477	0.134144	-0.092833	7.867415	-13.563683	7.225918	37.735850	85.317368	-15.448021	6.217883	20.313344	-6.023759	134.346272	7.880019	2.731693	-2.761467	-14.261245
3.166667	-0.939949	-5.120132	86.658842	-0.102569	0.761439	0.654388	8.245722	-4.287567	-4.824659	19.151436	0.334256	33.051131	3.463280	0.000000	2.855163	2.620208	-12.093599	6.001380	0.104744	34.741188	11.137281	0.000000	-0.057583	-0.302035	0.386289	-0.106937	-0.401707	0.410432	-0.094603	-0.734369	0.410432	-0.065812	-0.734369	0.338003	-0.053472	-0.615911	0.313860	-0.032903	-0.467853	0.289717	-0.411309	-3.416686	2.148423	0.000000	0.000000	11.874013	0.491385	-0.306963	8.169170	-13.052290	6.612426	39.080706	85.919266	-16.072077	6.378323	20.779559	-6.153542	130.991518	8.717289	5.252379	-2.545643	-13.169690
3.187500	-1.025724	-5.238948	85.623292	-0.100470	0.761540	0.656528	8.808879	-4.085171	-3.572519	19.409781	0.338765	32.864820	3.074425	0.000000	3.010308	2.621727	-12.251578	5.858478	0.102250	34.411743	10.225196	0.000000	-0.041099	-0.335781	0.602298	-0.076325	-0.446588	0.639942	-0.067522	-0.816417	0.639942	-0.046972	-0.816417	0.527011	-0.038165	-0.684724	0.489367	-0.023484	-0.520124	0.451724	-0.293568	-3.798418	3.349803	0.000000	0.000000	11.225382	0.824812	-0.619684	8.574396	-12.550403	6.373223	40.263952	86.354153	-16.846849	6.199419	21.260330	-6.319433	126.965804	9.734782	8.632847	-2.425711	-11.970334
3.208333	-1.145346	-5.328588	84.411884	-0.098124	0.761624	0.658720	9.403370	-3.890435	-2.202230	19.736813	0.344472	32.674905	2.686050	0.000000	3.131027	2.655199	-12.454449	5.691635	0.099338	34.073623	9.176916	0.000000	-0.025756	-0.372501	0.867656	-0.047832	-0.495427	0.921884	-0.042315	-0.905699	0.921884	-0.029437	-0.905699	0.759199	-0.023917	-0.759604	0.704970	-0.014717	-0.577004	0.650742	-0.183976	-4.213807	4.825641	0.000000	0.000000	10.813419	1.107530	-1.060656	9.082160	-12.052527	6.386384	41.309222	86.734050	-17.730763	5.723203	21.772647	-6.496983	122.327340	10.891618	12.738212	-2.252635	-10.812874
